<svg width="97" height="30" viewBox="0 0 97 30" fill="none" xmlns="http://www.w3.org/2000/svg">
<g clip-path="url(#clip0)">
<path d="M14.5455 0C6.51193 0 0 6.51193 0 14.5455C0 22.579 6.51193 29.0909 14.5455 29.0909C22.579 29.0909 29.0909 22.579 29.0909 14.5455C29.0927 6.51193 22.579 0 14.5455 0ZM21.2172 20.981C20.9566 21.41 20.3973 21.5437 19.97 21.2832C16.5534 19.1954 12.2544 18.7246 7.19109 19.8815C6.703 19.9926 6.21665 19.6869 6.10548 19.2006C5.99431 18.7125 6.29829 18.2261 6.78811 18.115C12.3291 16.8487 17.0814 17.3941 20.9167 19.7356C21.344 19.9944 21.4777 20.5537 21.2172 20.981ZM22.9976 17.0189C22.6693 17.5522 21.971 17.7207 21.4378 17.3924C17.5296 14.9901 11.5683 14.2936 6.9427 15.6971C6.34345 15.8777 5.70945 15.5407 5.52707 14.9415C5.34642 14.3422 5.68513 13.71 6.28265 13.5276C11.5665 11.9244 18.1341 12.7008 22.6224 15.4608C23.1574 15.7891 23.3242 16.4874 22.9976 17.0189ZM23.1505 12.8953C18.4623 10.111 10.7276 9.85562 6.25139 11.2139C5.53228 11.4328 4.77322 11.0263 4.55436 10.3072C4.33724 9.58812 4.74195 8.82906 5.46106 8.6102C10.599 7.0504 19.1415 7.35263 24.5383 10.5556C25.1845 10.9395 25.3964 11.775 25.0142 12.4194C24.6304 13.0656 23.7949 13.2792 23.1505 12.8953Z" fill="#65D36E"/>
<path d="M39.5753 13.4286C37.0637 12.8293 36.6173 12.4089 36.6173 11.5266C36.6173 10.6928 37.4024 10.13 38.5714 10.13C39.7039 10.13 40.826 10.5573 42.0036 11.4345C42.0401 11.4606 42.0835 11.471 42.127 11.464C42.1704 11.4571 42.2103 11.4328 42.2346 11.3963L43.461 9.66799C43.5113 9.59678 43.4974 9.49951 43.4297 9.44392C42.0279 8.3201 40.4508 7.77295 38.6061 7.77295C35.8947 7.77295 33.9996 9.4005 33.9996 11.728C33.9996 14.2258 35.6341 15.1082 38.4567 15.7908C40.8607 16.3449 41.2654 16.8087 41.2654 17.6373C41.2654 18.5561 40.4456 19.1276 39.1255 19.1276C37.6594 19.1276 36.4644 18.6343 35.1252 17.4757C35.0922 17.4479 35.047 17.434 35.0053 17.4358C34.9619 17.4392 34.9202 17.4601 34.8924 17.4931L33.5168 19.1293C33.4594 19.1971 33.4664 19.2995 33.5324 19.3569C35.0887 20.7464 37.0029 21.4795 39.0681 21.4795C41.9897 21.4795 43.8778 19.8832 43.8778 17.4114C43.883 15.3271 42.6342 14.172 39.5753 13.4286Z" fill="white"/>
<path d="M50.494 10.9517C49.2277 10.9517 48.189 11.4502 47.3309 12.4733V11.3234C47.3309 11.2331 47.258 11.1584 47.1659 11.1584H44.9183C44.828 11.1584 44.7533 11.2331 44.7533 11.3234V24.1075C44.7533 24.1979 44.8262 24.2726 44.9183 24.2726H47.1677C47.258 24.2726 47.3327 24.1979 47.3327 24.1075V20.0725C48.189 21.0348 49.2295 21.5038 50.4957 21.5038C52.8493 21.5038 55.2325 19.6921 55.2325 16.2286C55.229 12.7633 52.8476 10.9517 50.494 10.9517ZM52.6148 16.2269C52.6148 17.9899 51.5292 19.2214 49.9729 19.2214C48.4357 19.2214 47.2754 17.9343 47.2754 16.2269C47.2754 14.5194 48.4357 13.2323 49.9729 13.2323C51.5032 13.2341 52.6148 14.4916 52.6148 16.2269Z" fill="white"/>
<path d="M61.3362 10.9517C58.3052 10.9517 55.9307 13.2862 55.9307 16.2651C55.9307 19.2127 58.2895 21.5212 61.298 21.5212C64.3394 21.5212 66.7208 19.1954 66.7208 16.2269C66.7226 13.2688 64.3568 10.9517 61.3362 10.9517ZM61.3362 19.2405C59.7243 19.2405 58.5084 17.9447 58.5084 16.2286C58.5084 14.5038 59.6809 13.2532 61.298 13.2532C62.9203 13.2532 64.1449 14.5489 64.1449 16.2668C64.1449 17.9899 62.9638 19.2405 61.3362 19.2405Z" fill="white"/>
<path d="M73.1946 11.1566H70.7194V8.62754C70.7194 8.53721 70.6464 8.46252 70.5543 8.46252H68.305C68.2146 8.46252 68.1399 8.53721 68.1399 8.62754V11.1583H67.0578C66.9675 11.1583 66.8945 11.233 66.8945 11.3233V13.2566C66.8945 13.3469 66.9675 13.4216 67.0578 13.4216H68.1399V18.4224C68.1399 20.4425 69.1457 21.4673 71.1293 21.4673C71.9352 21.4673 72.6057 21.3005 73.2362 20.9427C73.2866 20.9149 73.3196 20.8593 73.3196 20.8003V18.9591C73.3196 18.9018 73.2901 18.8479 73.2415 18.8184C73.1928 18.7871 73.132 18.7854 73.0816 18.8114C72.6491 19.0286 72.2288 19.1293 71.7615 19.1293C71.0407 19.1293 70.7176 18.801 70.7176 18.068V13.4199H73.1928C73.2831 13.4199 73.3561 13.3452 73.3561 13.2548V11.3216C73.3596 11.2313 73.2849 11.1566 73.1946 11.1566Z" fill="white"/>
<path d="M81.8169 11.1671V10.8562C81.8169 9.94253 82.1678 9.53434 82.9529 9.53434C83.4219 9.53434 83.7988 9.62813 84.2209 9.76883C84.273 9.78446 84.3269 9.77751 84.3685 9.74625C84.412 9.71498 84.4363 9.66461 84.4363 9.6125V7.71746C84.4363 7.6445 84.3894 7.58024 84.3199 7.55939C83.8735 7.42738 83.3038 7.29016 82.4509 7.29016C80.3735 7.29016 79.2757 8.45915 79.2757 10.6721V11.148H78.1953C78.105 11.148 78.0303 11.2227 78.0303 11.313V13.2549C78.0303 13.3453 78.105 13.42 78.1953 13.42H79.2757V21.1339C79.2757 21.2242 79.3487 21.2989 79.439 21.2989H81.6884C81.7787 21.2989 81.8534 21.2242 81.8534 21.1339V13.42H83.9534L87.1703 21.1321C86.8055 21.9433 86.446 22.1031 85.9561 22.1031C85.5601 22.1031 85.1432 21.985 84.7159 21.7522C84.676 21.7297 84.6291 21.7262 84.5857 21.7401C84.5422 21.7557 84.5058 21.787 84.4884 21.8287L83.7259 23.5014C83.6894 23.5795 83.7206 23.6733 83.7971 23.7133C84.5926 24.1441 85.3117 24.3282 86.1993 24.3282C87.8599 24.3282 88.777 23.5552 89.5864 21.4743L93.4877 11.3929C93.5068 11.3425 93.5016 11.2852 93.4703 11.2401C93.439 11.1949 93.3887 11.1688 93.3348 11.1688H90.9934C90.9239 11.1688 90.8596 11.214 90.8371 11.28L88.4383 18.1306L85.812 11.2731C85.7876 11.2088 85.7269 11.1671 85.6591 11.1671H81.8169Z" fill="white"/>
<path d="M76.8179 11.1566H74.5685C74.4782 11.1566 74.4035 11.2313 74.4035 11.3216V21.1321C74.4035 21.2224 74.4782 21.2971 74.5685 21.2971H76.8179C76.9082 21.2971 76.9829 21.2224 76.9829 21.1321V11.3216C76.9829 11.2313 76.9082 11.1566 76.8179 11.1566Z" fill="white"/>
<path d="M75.7062 6.68921C74.8152 6.68921 74.0926 7.41006 74.0926 8.30113C74.0926 9.1922 74.8152 9.91478 75.7062 9.91478C76.5973 9.91478 77.3182 9.1922 77.3182 8.30113C77.3182 7.41179 76.5956 6.68921 75.7062 6.68921Z" fill="white"/>
<path d="M95.407 14.3109C94.5177 14.3109 93.8246 13.597 93.8246 12.7285C93.8246 11.86 94.5264 11.1375 95.4157 11.1375C96.3051 11.1375 96.9981 11.8513 96.9981 12.7198C96.9981 13.5883 96.2964 14.3109 95.407 14.3109ZM95.414 11.2955C94.6028 11.2955 93.9897 11.9399 93.9897 12.7285C93.9897 13.5171 94.5993 14.1528 95.4053 14.1528C96.2165 14.1528 96.8296 13.5084 96.8296 12.7198C96.8314 11.9313 96.2217 11.2955 95.414 11.2955ZM95.7649 12.8831L96.213 13.5102H95.8361L95.4331 12.9352H95.0874V13.5102H94.7713V11.8496H95.5113C95.8969 11.8496 96.1505 12.0476 96.1505 12.3794C96.1505 12.6504 95.9941 12.8171 95.7649 12.8831ZM95.4991 12.1327H95.0874V12.659H95.4991C95.7041 12.659 95.8274 12.5583 95.8274 12.3968C95.8274 12.2248 95.7041 12.1327 95.4991 12.1327Z" fill="white"/>
</g>
<defs>
<clipPath id="clip0">
<rect width="96.9981" height="29.0927" fill="white"/>
</clipPath>
</defs>
</svg>
